# xmcd
#
# Track frame offsets: 
#        150
#        20047
#        53475
#        74677
#        104545
#        126337
#        155622
#        185910
#        212257
#        244107
#        262170
#        280915
#        311800
#        332480
#
# Disc length: 4669 seconds
#
# Revision: 3
# Processed by: cddbd v1.5.1PL2 Copyright (c) Steve Scherf et al.
# Submitted via: ExactAudioCopy v0.95b2
#
DISCID=da123b0e
DTITLE=New Order - International
DYEAR=2002
DGENRE=Rock
TTITLE0=Ceremony
TTITLE1=Blue Monday
TTITLE2=Confusion
TTITLE3=Thieves Like Us
TTITLE4=The Perfect Kiss
TTITLE5=Shellshock
TTITLE6=Bizarre Love Triangle (ext. dance mix)
TTITLE7=True faith
TTITLE8=Touched by the Hand of God (orig. 12")
TTITLE9=Round and round
TTITLE10=Regret
TTITLE11=Crystal
TTITLE12=60 Miles an Hour
TTITLE13=Here to Stay (radio edit)
EXTD=
EXTT0=
EXTT1=
EXTT2=
EXTT3=
EXTT4=
EXTT5=
EXTT6=
EXTT7=
EXTT8=
EXTT9=
EXTT10=
EXTT11=
EXTT12=
EXTT13=
PLAYORDER=
